<svg xmlns="http://www.w3.org/2000/svg" width="498.139" height="310.002" viewBox="0 0 498.139 310.002"><g transform="translate(-2069.533 -270.919)"><path d="M993.521,1495.348l2.942,8.837-8.836,2.941-.364-1.471,1.1-.368-1.84-5.889,2.209-.739-.369-1.471Zm-17.673-2.209,4.418,12.886,3.68,9.944,24.67-8.473-3.685-24.3-29.082,9.938Z" transform="translate(1154.432 -1034.08)" fill="#ff595a" fill-rule="evenodd"/><path d="M1045.907,1528.241l-2.209-2.578-2.209-2.208-2.2-2.2-2.215-2.215-2.209-2.209-5.52-6.258-1.108-1.1-1.1-1.107-1.1-1.1-1.107-1.107-1.107-1.1-1.1-1.108-1.1-1.1-1.108-1.1-2.209-2.215,2.579-2.2,2.209-2.215,2.209-2.2,2.209-2.215,2.209-2.209,5.889-5.156,1.108-1.1,1.1-1.1,1.1-1.1,1.107-1.108,1.108-1.1,1.1-1.108,2.209-2.215,2.209-2.2,2.209,2.578,2.209,2.209,2.209,2.2,2.209,2.208,2.209,2.209,5.52,6.264,2.209,2.209,2.209,2.209,2.209,2.209,2.209,2.21,2.215,2.208-2.584,2.2-2.21,2.209-2.2,2.209-2.209,2.215-2.215,2.2-5.521,5.151-2.209,2.215-2.209,2.215-2.209,2.2-2.209,2.208-2.209,2.209Z" transform="translate(1356.822 -1086.121)" fill="#ff595a"/><path d="M983.722,1463.93l-.364-2.948-18.042,2.208,7.36,63.7,12.517-1.477.369,2.215,33.137,1.1-.732-7-.369-4.418-.738-7.359,10.676-1.108,4.788-.363-2.209-16.941-.369-4.055-.363-4.043-28.719,3.317-2.948-23.569-13.255,1.472Z" transform="translate(1104.217 -1139.991)" fill="#ff595a"/><path d="M987.1,1556.263l51.548-11.415-4.055-17.667,4.788-1.1-13.1-53.374-61.123,13.63,13.1,53.362,4.787-1.1Z" transform="translate(1134.344 -975.341)" fill="#ff595a"/><path d="M1072.258,1452.67l7.729,8.467,6.265,6.633,7.729,8.461-.369,5.526-8.1,7.729-7,6.628h-1.471l-5.52,5.157-8.837-.37-4.787-5.526h-1.108l-6.258-6.622-7.729-8.473.369-5.889,8.1-7.735,7-6.622,8.468-7.735Z" transform="translate(1473.692 -1181.382)" fill="#ff595a"/><path d="M996.784,1473.068,992,1461.659v-1.108l9.206-1.1,3.311,8.1-5.52,3.685-2.209,1.471Z" transform="translate(1231.429 -1147.294)" fill="#ff595a"/><path d="M973.759,1505.985l-2.578-1.476-3.311-11.41,1.471-2.584,3.317-1.1,7.729-2.209-1.107-4.049,1.471-2.579h19.888l2.942,1.476,3.311,11.41-1.471,2.947Z" transform="translate(1116.391 -1046.559)" fill="#ff595a"/><path d="M996.9,1468.578l-1.84-7.729L1006.84,1459h1.107l.739.369.363.375.37.364.369.738v1.84l-.369.738-8.1,11.778-4.049-6.627Z" transform="translate(1246.042 -1149.427)" fill="#ff595a"/><path d="M993.536,1532.79l-1.1-7.366h.369v.738l.733-.369v-.732h.738l-.369-1.846-2.947.738-7.219-28.115,57.947-16.2,8.181,31.057-2.209.375.738,2.579,1.1-.369v-.732h.369l2.578,7.36-2.209.369v.37h-.369l-43.445,9.569-13.255,2.579Z" transform="matrix(0.998, -0.07, 0.07, 0.998, 1094.43, -931.121)" fill="#ff595a"/><path d="M984.752,1494.846l-.733-8.83,12.147-2.948,1.84,7-5.156,1.835-7.729,2.584Z" transform="translate(1193.392 -1034.686)" fill="#ff595a"/><path d="M974.124,1470.318l10.676-1.1,1.1,20.614-9.569-.375-.738-6.99-.369-4.419-.732-7.359Z" transform="translate(1146.215 -1100.727)" fill="#ff595a"/><path d="M979.164,1499.236l-3.317-9.938v-.369l5.157-1.84,3.685,9.938-5.162,1.846Z" transform="translate(1154.431 -1015.514)" fill="#ff595a"/><path d="M976.856,1487.4l-.369-17.673h5.526l.369,17.673Z" transform="translate(1157.476 -1098.295)" fill="#ff595a"/><path d="M980.122,1477.434l-7.366.369-.738-16.566,9.206.732Z" transform="translate(1136.17 -1138.772)" fill="#ff595a"/><path d="M978.943,1476.523l-5.52.369,1.1-15.464,5.52.369-1.1,15.095Z" transform="translate(1142.869 -1137.861)" fill="#ff595a"/><path d="M1000.745,1488.238l-6.258-7.366,2.578-2.209,4.412,5.157,1.107-1.108,1.84,2.209Z" transform="translate(1243.302 -1055.687)" fill="#ff595a"/><path d="M979.905,1476.155l-5.526.368,1.107-15.094,5.52.369Z" transform="translate(1147.43 -1137.858)" fill="#ff595a"/><path d="M980.188,1475.481l-4.788.369,1.108-14.357,4.787.369-.738,13.988Z" transform="translate(1152.301 -1137.553)" fill="#ff595a"/><path d="M976.23,1475.545l4.793-.369.732-13.256-4.787-.363Z" transform="translate(1156.255 -1137.248)" fill="#ff595a"/><path d="M987.327,1493.785l-1.84-7.366,5.157-1.835,1.471-.368,1.84,7.365-6.258,2.2Z" transform="translate(1200.389 -1029.208)" fill="#ff595a"/><path d="M973.728,1479.76l-.369-2.948,5.52.369,1.471,12.886-5.52-.369-1.1-10.308Z" transform="translate(1142.564 -1064.513)" fill="#ff595a"/><path d="M989.208,1474.442l-12.147.364.732-13.25,11.415.739Z" transform="translate(1160.216 -1137.25)" fill="#ff595a"/><path d="M1021.546,1469.652l-10.677,8.467-16.2,8.837-6.628-15.464,3.686-1.839-.738-2.948,16.941-3.68,1.84,4.049,8.1-3.68,3.68,6.622Z" transform="translate(1212.56 -1130.252)" fill="#ff595a"/><path d="M988.717,1493.408l-1.84-7.366-.369-1.107,4.049-1.1,2.209,8.473-4.049,1.465Z" transform="translate(1205.257 -1031.035)" fill="#ff595a"/><path d="M973.537,1474.705l15.464.738-1.107,12.886-2.578-.368-.369,2.578-4.787-.364-.369-2.584-.732-5.52-5.157-.37-.733-7Z" transform="translate(1141.651 -1074.558)" fill="#ff595a"/><path d="M989.419,1493.217l-2.21-8.473,4.049-1.1,2.209,8.1Z" transform="translate(1208.606 -1031.948)" fill="#ff595a"/><path d="M1011.05,1486.381l-10.308-21.722,22.091-7,6.258,23.194-18.042,5.163Z" transform="translate(1273.129 -1155.819)" fill="#ff595a"/><path d="M990.731,1495.392l-2.209-8.1-.738-3.311,4.418-1.1.369,1.1H992.2l2.584,9.944Z" transform="translate(1211.343 -1035.597)" fill="#ff595a"/><path d="M997.534,1486.35l-3.686-4.418.739-2.572,2.209-1.846,4.788,5.52-1.477,1.477-2.572,2.21Z" transform="translate(1240.256 -1061.166)" fill="#ff595a"/><path d="M1008.422,1488.011,1004,1491.7l-7.729-8.842,4.049-3.68.369.375.369-.375,7.36,8.473Z" transform="translate(1251.823 -1053.253)" fill="#ff595a"/><path d="M1004.464,1491.053l-7.36-8.468,4.787-4.049,7.36,8.468Z" transform="translate(1255.781 -1056.294)" fill="#ff595a"/><path d="M1004.572,1462.225l25.771-5.519,5.157,22.461-24.67,7.359v-.732l-6.258-23.2Z" transform="translate(1291.388 -1160.382)" fill="#ff595a"/><path d="M993.593,1460.425l8.467-1.1,1.84,7.729-5.151,4.049-1.846-2.578Z" transform="translate(1239.04 -1147.901)" fill="#ff595a"/><path d="M995.508,1492.2l-1.1.364.738,2.948-3.686.738-.738-3.316-2.2.369-2.584-10.308,5.9-1.839,2.578,10.307,1.1-.363v1.1Z" transform="translate(1202.517 -1043.818)" fill="#ff595a"/><path d="M978.9,1491.932l-4.787.369-1.84-18.042H977.8v2.209l.733,7,.369,5.52.363,2.948Z" transform="translate(1137.391 -1076.686)" fill="#ff595a"/><path d="M989.469,1493.044l-2.579-10.307,6.264-1.84,2.573,10.307-5.151,1.476Z" transform="translate(1207.083 -1045.035)" fill="#ff595a"/><path d="M978.082,1471.553v-6.627l20.62-.369-.369,6.628h-3.317l-16.566.368Z" transform="translate(1165.084 -1122.946)" fill="#ff595a"/><path d="M1011.075,1479.966l-4.787.738,1.84,4.419,6.627,15.464-25.771,11.783-5.157-4.049.369-40.866,4.788-5.895,19.513-1.471v.732l1.471,13.255.738,5.526Z" transform="translate(1192.473 -1144.25)" fill="#ff595a"/><path d="M994.359,1480.256l4.049-3.317,8.1,9.206-1.1.738.733,1.471-2.573,2.215-4.419-5.157-4.787-5.526Z" transform="translate(1242.693 -1063.908)" fill="#ff595a"/><path d="M1003.962,1503.1l-27.987-.727v-27.992l29.457,1.477-1.47,27.242v0Z" transform="translate(1155.038 -1076.08)" fill="#ff595a"/><path d="M998.38,1483.814l19.144-19.513,9.206,12.517-17.3,17.673-10.682-11.046Z" transform="translate(1261.865 -1124.164)" fill="#ff595a"/><path d="M1024.986,1480.945l-4.055,3.311-3.674-6.627-2.584-4.412-1.471.369v.369l-5.52.733v-1.1l-18.043,2.2-1.471-13.254,22.086-2.573,4.787,11.409,2.215-1.471,7.73,11.409Z" transform="translate(1213.173 -1144.857)" fill="#ff595a"/><path d="M979.809,1493.533l-3.311-11.422-2.947-1.47h37.187l1.1,6.258-33.5,9.576Z" transform="translate(1143.476 -1046.253)" fill="#ff595a"/><path d="M1033.13,1493.854l1.1,4.049,1.846-.369.369,1.477,4.782,20.615-1.84.37,1.108,4.418-43.445,9.939-1.108-4.413-1.84.363-4.787-22.086,2.209-.369-1.1-4.049,43.445-9.575Z" transform="matrix(0.998, -0.07, 0.07, 0.998, 1112.994, -905.57)" fill="#ff595a"/><path d="M989.206,1498.325h-.369l.369.738-11.046,4.049-4.418-11.409.739-.375,5.889-2.2-.369-1.108,1.84-.738.739,2.215,3.311-1.107Z" transform="translate(1144.39 -1014.604)" fill="#ff595a"/><path d="M994.667,1493.529l.739,2.942,2.578-.739,1.84,7-6.258,2.209-2.578-9.944h.363l-.363-1.1-.369-1.1-2.578-10.312,6.258-1.835,2.947,12.516-2.578.733Z" transform="translate(1212.562 -1046.248)" fill="#ff595a"/><path d="M1002.862,1490.034l-9.206-16.2,4.049-2.578,9.575,13.987-4.418,4.424Z" transform="translate(1239.343 -1090.99)" fill="#ff595a"/><path d="M1005.063,1485.46l-9.938-12.147,3.68-2.948,10.307,11.415-4.049,3.686Z" transform="translate(1246.346 -1095.254)" fill="#ff595a"/><path d="M1019.642,1491.486l-4.049,10.676-18.042-22.829,6.627-5.52,15.1,18.037Z" transform="translate(1257.91 -1078.817)" fill="#ff595a"/><path d="M1006.012,1485.127,995.7,1473.712l3.685-4.049,11.046,10.677-4.787,4.419Z" transform="translate(1249.081 -1098.6)" fill="#ff595a"/><path d="M984.816,1494.911l-.733-7.729,7.729-2.584,1.84,7.366-9.206,2.947Z" transform="translate(1193.696 -1027.387)" fill="#ff595a"/><path d="M979.536,1461.748l14.725,1.1-.733,10.313-14.362.732v-12.147Z" transform="translate(1170.257 -1136.337)" fill="#ff595a"/><path d="M1002.479,1484.254l-9.206-15.834,3.316-2.2,9.938,14.357Z" transform="translate(1237.518 -1115.03)" fill="#ff595a"/><path d="M1003.792,1482.4l-9.945-14.356,2.585-2.209,10.676,13.249-3.316,3.311Z" transform="translate(1240.256 -1116.858)" fill="#ff595a"/><path d="M1003.928,1487.447l-9.569-13.993,4.049-2.579,9.938,12.148-4.418,4.418Z" transform="translate(1242.693 -1092.817)" fill="#ff595a"/><path d="M1004.972,1481.283,994.3,1468.028l2.578-2.578,11.046,12.517-3.317,3.316Z" transform="translate(1242.391 -1118.687)" fill="#ff595a"/><path d="M994.806,1470.318l6.627-5.889,11.046,12.148-6.259,6.263-11.045-12.522Z" transform="translate(1244.823 -1123.558)" fill="#ff595a"/><path d="M1007.351,1488.955l-4.049,3.31-7.729-9.2,3.68-3.317.369.369Z" transform="translate(1248.477 -1050.512)" fill="#ff595a"/><path d="M1000.8,1485.749l-7.729-16.2-.369-.738,3.311-2.21,9.206,15.833Z" transform="translate(1234.78 -1113.21)" fill="#ff595a"/><path d="M1001.487,1491.956,997.8,1485.7l-4.781-11.784,4.049-2.216,9.206,16.2-4.424,4.418Z" transform="translate(1236.303 -1088.863)" fill="#ff595a"/><path d="M1007.447,1484.9,996.4,1474.226l5.52-5.52,3.685,3.681.739-.732,7.36,7.359-6.258,6.259Z" transform="translate(1252.431 -1103.163)" fill="#ff595a"/><path d="M989.061,1484.225l15.095-4.412,5.157,21.722-14.726,4.787-1.846-7-.732-2.947-2.947-12.516Z" transform="translate(1217.432 -1050.207)" fill="#ff595a"/><path d="M997.426,1488.763l-6.258-14.726,5.889-2.578-1.1-2.21,4.418-2.2,7.729,16.191-10.677,4.793Z" transform="translate(1227.475 -1111.074)" fill="#ff595a"/><path d="M1005.569,1501.94l-36.079-.739-2.578-26.51,30.928-.369,1.84,18.043,4.787-.364,1.1,10.3Z" transform="translate(1111.824 -1076.385)" fill="#ff595a"/><path d="M1009.138,1483.822l-7.366-7.36-.732.733-3.68-3.68,5.889-5.895,10.677,11.046Z" transform="translate(1256.998 -1108.341)" fill="#ff595a"/><path d="M1006.032,1460.663l4.049,6.622-2.947,4.055-6.259,6.259-7.729-11.415,5.52-3.68,1.84,2.578,5.156-4.049Z" transform="translate(1236.911 -1141.513)" fill="#ff595a"/><path d="M977.444,1470.8l5.889.363.369-4.049,16.935.739-1.471,32.4-20.621-.369-.369-17.673V1470.8Z" transform="translate(1162.042 -1110.776)" fill="#ff595a"/><path d="M981.6,1487.2l-7.729,2.209-.369-1.471-4.787,1.107-1.1-7,12.516-1.476.732,2.578,1.1,4.049Z" transform="translate(1115.175 -1046.558)" fill="#ff595a"/><path d="M1023.872,1497.9l-8.468,7.366-7.366-8.468L995.891,1482.8l1.84-1.471.364.369,7.735-7,.369.364,18.037,22.83Z" transform="translate(1249.999 -1074.555)" fill="#ff595a"/><path d="M999.965,1497.3l-1.471.37-1.846-7-12.147,2.948-.738-8.473,11.784-3.68,2.579,10.307,1.108,4.049.369,1.107Z" transform="translate(1192.17 -1042.297)" fill="#ff595a"/><path d="M989.178,1499.339l-.739-1.839-3.31,1.1-1.84.738.364,1.1-5.889,2.209-4.788-11.778,16.2-5.89,4.418,12.886-5.157,1.835Z" transform="translate(1140.737 -1025.554)" fill="#ff595a"/><path d="M1006.97,1490.529h-.369l-.369-.364-.369-.375v-1.1l-9.206-8.837,12.886-19.144,3.317-.364,8.1,17.3-13.255,11.046v1.1l-.369.375-.364.364h0Z" transform="translate(1253.647 -1143.031)" fill="#ff595a"/><path d="M986.5,1490.74h.363l5.526,13.988,1.477,4.424-19.882,6.622-5.156-23.562,16.2-5.889,1.471,4.049Z" transform="translate(1120.954 -1019.167)" fill="#ff595a"/><path d="M999.369,1499.009l-.733-.739,16.2-13.993,18.781-15.827,18.775,22.086-19.144,16.2-15.833,13.618-2.942-3.311Z" transform="translate(1263.087 -1104.379)" fill="#ff595a"/><path d="M988.55,1516.56l-3.68-3.316-1.108-33.87,3.317-3.68,7-.37,8.467-2.208,6.259-2.942,4.418,1.471,15.094,30.189-1.471,4.788-6.264,2.947-25.4,6.259-6.991.363Z" transform="translate(1192.17 -1096.163)" fill="#ff595a"/><path d="M1027.9,1474.989l-4.419,3.316-10.677-13.63,4.412-3.31,1.108,1.471Z" transform="translate(1330.65 -1138.166)" fill="#ff595a"/><path d="M1024.97,1471.092l-4.424,3.311-5.889-7.36,4.424-3.316,5.151,6.628Z" transform="translate(1339.473 -1126.905)" fill="#ff595a"/><path d="M1040.986,1511.913l-24.67-28.349,5.9-5.157,24.664,28.35Z" transform="translate(1347.385 -1056.906)" fill="#ff595a"/><path d="M1048.751,1478.53l-.739-.732,2.21-2.585-.369-.369,11.045-11.778,1.841,1.476,4.787-5.157,20.62,17.674-33.506,29.088-16.941-15.1,1.477-1.84,1.1-1.47,7.734-8.837Z" transform="translate(1449.34 -1147.599)" fill="#ff595a"/><path d="M1013.764,1467.094l6.99-6.622,4.055,4.418-1.108,1.1,5.157,5.526-1.107,1.1,4.418,4.792-.738.728,1.477,1.84-1.108,1.107,1.108,1.1-4.418,4.055-5.151-6.633-9.575-12.148Z" transform="translate(1335.215 -1142.423)" fill="#ff595a"/><path d="M1042.259,1455.031h1.84l.369-.369.369.369.37.369,1.471,1.471.369.369.369.375,1.471,1.471.369.369.369.363,1.471,1.477.369.363.369.37,1.477,1.476.363.369.369.368,1.477,1.477.369.369.369.358,1.47,1.482.37.363.369.369-.369.369v1.845l.369.364-.369.368-.37.37-1.47,1.471-.369.369-.369.369-1.477,1.477-.369.369-.363.363-1.477,1.471-.369.375-.369.364-1.471,1.476-.369.37-.369.369-1.471,1.47-.369.364-.369.375-1.471,1.464-.37.375-.369.369-1.477,1.47-.364.369-.369.37-1.471,1.471-.375.363-.369.375-1.471,1.477-.369.363-.363.37-1.477,1.476-.369.369-.369.369-1.471,1.471-.369.37-.369.368-.369-.368h-1.471l-.369.368-.369-.368-.369-.37L1029,1494.08l-.369-.369-.369-.369-1.471-1.476-.369-.37-.369-.363-1.47-1.477-.369-.375-.37-.363-1.476-1.471-.369-.37-.369-.369-1.471-1.47-.369-.369-.364-.375-1.476-1.464-.37-.375-.369-.364.369-.368v-1.841l-.369-.369.369-.368.37-.369,1.476-1.471.364-.369.369-.369,1.471-1.471.369-.375.369-.363,1.476-1.471.37-.37.369-.369,1.47-1.471.369-.368.369-.375,1.471-1.471.369-.369.369-.363,1.471-1.482.369-.358.369-.369,1.471-1.477.369-.368.369-.369,1.477-1.476.363-.37.369-.363,1.477-1.477.363-.363.375-.369,1.471-1.471.369-.375.363-.369,1.476-1.471.37-.369.369-.369.369.369Z" transform="translate(1351.637 -1170.124)" fill="#ff595a"/><path d="M1012.359,1459.241l25.039-3.685h.733l.738.369.369.369.738.369.369.369.363.739v1.835l-.363.739-.369.738-.369.369-9.211,8.1-11.779,8.1-6.258-18.042Z" transform="translate(1328.517 -1165.862)" fill="#ff595a"/><path d="M1015.1,1478.719l-4.788-20.984,7.735-1.476,5.52,19.144Z" transform="translate(1318.779 -1162.515)" fill="#ff595a"/><path d="M1065.673,1481.913l.369.369-2.209,2.579.738.738-7.735,8.836-1.1,1.471-1.477,1.841-19.877-16.567,25.772-23.2,1.84,1.471,15.095,11.046-11.045,11.784Z" transform="translate(1433.519 -1154.297)" fill="#ff595a"/><path d="M1053.417,1482.988l-27.242,23.931-18.412-23.931L1036.852,1462l10.676,13.624Z" transform="translate(1306.604 -1135.121)" fill="#ff595a"/><path d="M1045.677,1491.694l-15.827-17.3,22.086-20.621,15.833,17.3-16.566,15.464Z" transform="translate(1411.911 -1174.383)" fill="#ff595a"/><path d="M1050.428,1525.465l-24.664-27.617,35.71-32.4,24.669,27.611-35.716,32.036-.363.369Z" transform="translate(1392.432 -1118.688)" fill="#ff595a"/><path d="M1030.895,1512.039l-16.941-19.144,28.355-25.4,16.935,19.144-8.837,7.729Z" transform="translate(1336.123 -1108.946)" fill="#ff595a"/><path d="M1056.692,1474.318l-2.578-2.572-3.68,3.674,11.784,12.517-23.936,22.83-17.3-18.412,34.245-32.393,8.1,8.83-6.264,5.9Z" transform="translate(1369.603 -1144.86)" fill="#ff595a"/><path d="M1066.154,1475.727l-28.719,25.033,4.049,4.787-7.366,6.259-7.36-8.462-27.612,24.3,47.494,54.49,18.411-15.827,1.471,1.84,16.571-14.726,1.1,1.471,24.67-21.353,1.107,1.108,4.419-3.686-25.039-28.719-8.468-9.575-14.357-16.565Z" transform="translate(1265.519 -1069.687)" fill="#ff595a"/><path d="M2272.543,537.317l29.988-17.037L2258.5,473.322a2.086,2.086,0,0,0-2.5-.477,1.742,1.742,0,0,0-.84,2.278Z" fill="#ff595a"/></g></svg>