<svg xmlns="http://www.w3.org/2000/svg" width="540.119" height="393.105" viewBox="0 0 540.119 393.105"><g transform="translate(-1641.538 -1229.105)"><path d="M260.919,207.595c41.3-26.269,77.8-61.576,89.963-103.663,12.486-42.087.32-90.952-33.936-114.114S226.022-31.366,179.92-39.84s-81.639-27.4-118.457-25.7C24.966-63.567-12.812-41.252-33.622-9.9c-21.13,31.353-25.932,71.462-24.012,116.091,1.921,44.346,10.245,92.929,41.94,120.328C16.322,254.2,72.028,260.98,122.933,255.9A316.778,316.778,0,0,0,260.919,207.595Z" transform="translate(1771.305 1329.728)" fill="#ff595a"/><path d="M281.6,225.316c43.978-27.972,82.843-65.57,95.8-110.386,13.3-44.816.341-96.851-36.137-121.515S244.444-29.143,195.352-38.166,108.418-67.341,69.213-65.537C30.348-63.431-9.88-39.67-32.04-6.283c-22.5,33.386-27.614,76.1-25.569,123.62,2.046,47.222,10.909,98.956,44.66,128.132,34.092,29.476,93.411,36.7,147.617,31.281A337.322,337.322,0,0,0,281.6,225.316Z" transform="translate(1762.98 1320.948)" fill="none" stroke="#ff595a" stroke-width="1" opacity="0.7"/><path d="M309.845,249.511c47.635-30.3,89.731-71.022,103.764-119.565,14.4-48.543.369-104.9-39.142-131.619S269.595-26.107,216.421-35.881s-94.163-31.6-136.628-29.647C37.7-63.247-5.877-37.509-29.879-1.347c-24.372,36.163-29.91,82.425-27.695,133.9C-55.359,183.7-45.758,239.737-9.2,271.339c36.927,31.927,101.179,39.746,159.892,33.882A365.372,365.372,0,0,0,309.845,249.511Z" transform="translate(1735.051 1302.684)" fill="none" stroke="#ff595a" stroke-width="1" opacity="0.5"/><path d="M357.484,265.912c53.8-31.875,101.352-74.718,117.2-125.787,16.266-51.069.417-110.363-44.211-138.468S312.022-24.049,251.961-34.331,145.6-67.577,97.64-65.521C50.092-63.122.876-36.045-26.235,2-53.763,40.044-60.019,88.714-57.517,142.867c2.5,53.811,13.347,112.763,54.638,146.009,41.709,33.589,114.282,41.815,180.6,35.645C243.62,318.009,303.68,297.787,357.484,265.912Z" transform="translate(1700.045 1295.249)" fill="none" stroke="#ff595a" stroke-width="1" opacity="0.3"/></g></svg>